<?xml version="1.0" encoding="UTF-8" standalone="no"?>
<svg
   width="184.47198"
   height="135.27544"
   viewBox="0 0 184.47198 135.27543"
   version="1.1"
   xml:space="preserve"
   style="clip-rule:evenodd;fill-rule:evenodd;stroke-linejoin:round;stroke-miterlimit:2"
   id="svg7"
   sodipodi:docname="logo_mono.svg"
   inkscape:version="1.1 (c4e8f9ed74, 2021-05-24)"
   xmlns:inkscape="http://www.inkscape.org/namespaces/inkscape"
   xmlns:sodipodi="http://sodipodi.sourceforge.net/DTD/sodipodi-0.dtd"
   xmlns="http://www.w3.org/2000/svg"
   xmlns:svg="http://www.w3.org/2000/svg"><defs
   id="defs11" /><sodipodi:namedview
   id="namedview9"
   pagecolor="#ffffff"
   bordercolor="#666666"
   borderopacity="1.0"
   inkscape:pageshadow="2"
   inkscape:pageopacity="0.0"
   inkscape:pagecheckerboard="0"
   showgrid="false"
   fit-margin-top="0"
   fit-margin-left="0"
   fit-margin-right="0"
   fit-margin-bottom="0"
   inkscape:zoom="2.5384615"
   inkscape:cx="92.575758"
   inkscape:cy="67.560606"
   inkscape:window-width="3840"
   inkscape:window-height="2043"
   inkscape:window-x="2400"
   inkscape:window-y="0"
   inkscape:window-maximized="1"
   inkscape:current-layer="svg7" />
    <rect
   id="logo_mono"
   x="-50.462505"
   y="-62.357925"
   width="285.397"
   height="259.992"
   style="fill:none" />
    <g
   id="g5"
   transform="translate(-50.462504,-62.357926)">
        <path
   d="m 230.62,166.291 c 2.964,-0.606 4.839,-3.495 4.184,-6.448 l -20.65,-93.12 c -0.655,-2.953 -3.593,-4.858 -6.556,-4.253 L 54.776,93.701 c -2.963,0.605 -4.838,3.495 -4.183,6.448 l 20.649,93.119 c 0.655,2.953 3.593,4.859 6.557,4.253 z m -91.727,-49.809 c -6.623,-6.211 -32.319,-28.499 -26.231,-28.78 19.689,-0.908 27.27,15.523 30.054,25.537 -1.304,-18.183 16.507,-22.017 16.364,-23.191 -0.161,-1.321 2.497,14.172 -6.343,20.283 -2.986,2.065 -4.932,3.927 -6.198,5.487 0.633,0.211 1.222,0.485 1.746,0.808 1.827,-0.775 4.352,-0.857 6.792,0.089 2.439,0.947 4.428,2.779 5.506,4.681 1.974,0.36 4.253,1.691 5.993,3.843 1.74,2.151 2.679,4.801 2.778,7.003 1.59,1.399 3.013,3.787 3.587,6.567 0.574,2.781 0.211,5.537 -0.696,7.451 0.781,2.062 0.967,4.866 0.221,7.531 -0.746,2.664 -2.313,4.789 -3.982,5.901 -0.238,2.173 -1.339,4.643 -3.205,6.477 -1.866,1.834 -4.217,2.759 -6.203,2.77 -1.192,1.702 -3.286,3.175 -5.771,3.688 -2.486,0.513 -4.992,-0.011 -6.76,-1.103 -1.828,0.775 -4.353,0.857 -6.793,-0.089 -2.439,-0.946 -4.428,-2.778 -5.506,-4.68 -1.974,-0.36 -4.253,-1.692 -5.993,-3.843 -1.74,-2.152 -2.679,-4.801 -2.777,-7.004 -1.591,-1.398 -3.014,-3.787 -3.588,-6.567 -0.573,-2.78 -0.211,-5.537 0.696,-7.45 -0.781,-2.062 -0.967,-4.867 -0.221,-7.531 0.746,-2.665 2.313,-4.79 3.983,-5.901 0.237,-2.174 1.338,-4.643 3.204,-6.478 1.866,-1.834 4.217,-2.758 6.203,-2.77 0.74,-1.056 1.827,-2.024 3.14,-2.729 z"
   style="fill:#a8d0d6"
   id="path3" />
    </g>
</svg>
